<?xml version="1.0" encoding="utf-8"?>
<!-- Generator: Adobe Illustrator 25.0.1, SVG Export Plug-In . SVG Version: 6.00 Build 0)  -->
<svg version="1.0" id="Layer_1" xmlns="http://www.w3.org/2000/svg" xmlns:xlink="http://www.w3.org/1999/xlink" x="0px" y="0px"
	 viewBox="0 0 368 250" style="enable-background:new 0 0 368 250;" xml:space="preserve">
<style type="text/css">
	.st0{fill:#01427A;}
	.st1{fill:#0289CE;}
	.st2{fill:#FCFCFD;}
	.st3{fill:#FDFDFE;}
	.st4{fill:#F9FAFB;}
	.st5{fill:#282424;}
	.st6{fill:#FEFEFE;}
	.st7{fill:#019D4A;}
	.st8{fill:#02437A;}
	.st9{fill:#C4A743;}
	.st10{fill:#50B246;}
	.st11{fill:#E4C320;}
	.st12{fill:#6ABB44;}
	.st13{fill:#61B745;}
	.st14{fill:#D0B13A;}
	.st15{fill:#E3A714;}
	.st16{fill:#DCBC2D;}
</style>
<path class="st0" d="M122.2,146.3V84.1h123.5c0,19.8,0,39.6,0,59.3c0,2-0.3,4-0.4,6.1h-8.5c-2,0-4,0-5.9,0c-1.2,0-2.3,0-3.5,0
	c-2.7,0-5.4,0-8.1,0h-0.9h-7.1c-1.9-2-4.3-3.6-6.9-4.6l-3.7-1.2l-2.9-0.6l-2.8-0.3h-1.5c-1.8,0-3.7,0.2-5.5,0.4
	c-2.6,0.5-5.1,1.2-7.7,1.9l-6.5,0.3c-0.2,0-0.5-0.1-0.7-0.2l-5.2-1.4c-1.1-0.8-2.3-1.5-3.4-2.3c-0.4-0.3-0.6-0.3-1-0.1
	c-1,0.6-2,1.4-3,2.1c-1.6,1.3-2.7,3-3.3,5l-0.4,0.9h-1h-0.3h-7.3h-12.3h-13.4c0-0.3-0.1-0.7-0.1-1.1
	C122.4,147.8,122.3,147,122.2,146.3z M203.2,117.7c0.2,0,0.4,0,0.6,0c4,0,8,0,11.9,0c1.7,0,3.4-0.2,5.1-0.5c4.6-0.9,8-3.5,9.7-8
	c1.1-3.2,1.4-6.6,0.7-9.9c-0.5-3.8-2.8-7.1-6.3-8.9c-2.6-1.2-5.4-1.8-8.2-1.7c-4.2,0-8.5,0-12.7,0h-0.8v1.1c2.2,0.5,2.8,1.2,2.8,3.5
	v14.3c0,2,0,3.9,0,5.8c0.2,1.4-0.8,2.7-2.2,2.8c-0.1,0-0.1,0-0.2,0c-0.2,0-0.3,0.1-0.5,0.2L203.2,117.7z M155.4,89.8
	c1.4,0.3,1.6,0.6,1.7,2v0.5c0,4.8,0,9.6,0,14.4c0,1.5-0.2,2.9-0.5,4.3c-0.4,2.3-2.2,4.2-4.6,4.7c-2.6,0.6-5.1,0.3-7-1.8
	c-1.3-1.6-2-3.5-1.9-5.6c-0.1-3.2-0.1-6.4-0.1-9.6c0-2.2,0-4.5,0.1-6.8c0.1-1.6,0.2-1.7,1.7-2.1v-1h-8.1v1.1
	c1.3,0.2,1.6,0.5,1.7,1.8c0,0.3,0,0.6,0,0.8c0,4.9,0,9.8,0,14.7c0,1.2,0.1,2.4,0.3,3.6c0.4,3.3,2.8,6,6,6.9c3.6,1.1,7.4,1.1,11-0.1
	c2.6-0.7,4.7-2.8,5.4-5.5c0.4-1.5,0.7-3.1,0.7-4.6c0.1-5.1,0-10.2,0-15.3c0-1.8,0.1-1.9,1.7-2.4v-1h-8L155.4,89.8L155.4,89.8z
	 M194.8,94.6c0-1.3,0-2.6,0-3.9c0.1-0.6-0.3-1.2-0.8-1.3l0,0c-4.4-1.5-9.1-1.7-13.6-0.6c-4.3,0.9-7.8,4.2-9.1,8.4
	c-1.5,4.4-1.5,9.1,0.2,13.4c1.2,3.4,4,6,7.5,6.9c4.7,1.3,9.7,1.1,14.3-0.5c1.2-0.4,1.9-0.9,1.7-2.3c0-0.3,0-0.5,0-0.8
	c0.1-1,0.1-2.1,0.2-3.2H194c-1.2,3-2.5,4.1-5.5,4.7c-0.9,0.2-1.9,0.2-2.8,0.3c-4,0.5-7.8-1.8-9.1-5.6c-1.9-4.7-1.8-10,0.3-14.6
	c1.1-2.7,3.6-4.6,6.5-4.9c2.1-0.3,4.2-0.2,6.2,0.3s3.6,1.5,4.1,3.7H194.8z M185.9,129.3c0.5-0.5,0.9-1.1,1.2-1.7
	c0.6-1.4,0-3.1-1.5-3.7c-0.3-0.1-0.7-0.2-1.1-0.2c-2.7-0.2-5.5-0.2-8.2-0.2l-0.1,0.1v11.9c0.1,0,0.1,0,0.2,0.1c1.6,0,3.2,0,4.8,0
	c1.1,0,2.2,0,3.3-0.2c1.5-0.1,2.8-1.2,3.2-2.7C188,131.1,187.4,130.1,185.9,129.3z M216.2,135.5v-9.2c0.3,0.4,0.5,0.7,0.7,0.9
	l6.1,7.9c0.1,0.2,0.3,0.3,0.6,0.4c0.9,0,1.7,0,2.6,0v-12h-2.4v9.2c-2.3-3-4.5-5.9-6.7-8.7c-0.2-0.2-0.4-0.4-0.7-0.5
	c-0.9-0.1-1.7,0-2.6,0v12H216.2z M141.9,123.4v12c2.5,0,5,0.2,7.5-0.1c2.3,0,4.4-1.5,5-3.8c0.2-0.9,0.3-1.8,0.2-2.8
	c0.1-2.3-1.5-4.3-3.8-4.8C147.9,123.1,144.9,123.6,141.9,123.4z M169.2,123.4v0.8c0,2.2,0,4.4,0,6.5c0.1,1.4-0.9,2.7-2.3,3
	c-0.7,0.1-1.4,0.2-2.1,0.1c-2.1-0.2-3-1.3-3-3.4v-7h-2.3c0,2.6-0.1,5.2,0,7.7c0,1.9,1.3,3.6,3.2,4.1c1.3,0.4,2.6,0.5,3.9,0.4
	c3-0.2,5.2-2.1,5-5.6c-0.1-2,0-4,0-6v-0.8L169.2,123.4z M195.7,133.6v-10.1h-2.3v12h9.4v-1.8L195.7,133.6z M209,123.5h-2.3v12h2.3
	V123.5z"/>
<path class="st1" d="M245.8,84.1H122.2V60c2.1-1,4.1-2.1,6.2-3.1c17-8.4,35-13.8,53.6-17.2c8.1-1.6,16.3-2.7,24.5-3.4
	c6.4-0.5,12.9-0.9,19.3-1.1c4.9-0.2,9.8,0,14.7,0.1c1.7,0,3.5,0.2,5.3,0.2V84.1z M155,80.2L154.1,70c1.4,0.1,0.7-1,1-1.6
	c0.6,0.1,0.7-0.3,0.7-0.8c0.1-1.4-1.1-0.5-1.6-1v-1.1c0-1.1,0-1.1-1.1-1.1c-0.4,0-0.8,0-1.2,0c-0.7-0.1-1,0.2-1,0.9
	c0,0.5,0,0.9,0,1.4h-3.1V65c0-0.5-0.2-0.7-0.7-0.7s-1.3,0-1.9,0s-0.7,0.2-0.7,0.7s0,1.1,0,1.6h-3.1c-0.1-0.8,0.1-1.9-0.3-2.2
	c-0.4-0.3-1.5-0.1-2.3-0.2h-0.1c-0.5,0-0.7,0.2-0.7,0.7s0,1.1,0,1.5c-0.6,0.4-1.4-0.3-1.6,0.7c-0.1,0.6-0.1,1.2,0.8,1.1
	c0.2,0.6-0.4,1.6,1,1.6l-0.4,1c-0.1,0.1-0.1,0.2-0.1,0.2c-0.2,1.8-0.5,3.7-0.7,5.5c-0.2,1.3-0.3,2.6-0.5,4h18.4L155,80.2z
	 M169.3,66.5l-1.9,14.3h24.2v-0.9l-1.1-13.4c1.9,0.2,0.8-1.3,1.3-2c1-0.2,1-0.2,0.9-1.4c0-0.5-0.2-0.7-0.7-0.7h-1.4
	c0-0.8,0-1.6,0-2.3s-0.2-0.8-0.8-0.8c-0.9,0-1.8,0-2.7,0c-0.6,0-0.8,0.2-0.8,0.8c0,0.8,0,1.5,0,2.3h-4.2c0-0.8,0-1.5,0-2.2
	s-0.2-0.8-0.8-0.8c-0.9,0-1.8,0-2.6,0c-0.6,0-0.8,0.2-0.8,0.8c0,0.8,0,1.5,0,2.3h-4.2c0-0.8,0-1.5,0-2.2s-0.2-0.8-0.8-0.8
	c-0.8,0-1.7,0-2.5,0s-1,0.3-0.9,0.9s0,1.4,0,2.2c-0.5,0-1,0-1.4,0c-0.3,0-0.5,0.2-0.6,0.4c-0.3,1,0,1.5,1,1.8c0,0.3,0,0.7,0,1
	C168.3,66.2,168.6,66.5,169.3,66.5L169.3,66.5z M231.4,79.8l-1.3-15.1c1.3-0.2,1.3-0.2,1.3-1.5c0-0.3,0-0.6,0-0.9
	c1.1-0.1,1.1-0.1,1.1-1.2V61c0-1.1,0-1.1-1.1-1.1h-1.3c0-1,0-1.8,0-2.7c0-0.6-0.2-0.8-0.8-0.8c-1,0-2.1,0-3.1,0
	c-0.7,0-0.9,0.3-0.9,0.9c0,0.8,0,1.7,0,2.5h-4.7c0-0.9,0-1.7,0-2.6c0-0.6-0.2-0.9-0.8-0.9c-1,0-2.1,0-3.1,0c-0.6,0-0.8,0.2-0.8,0.8
	c0,0.9,0,1.8,0,2.7h-4.7v-2.7c0-0.5-0.2-0.8-0.8-0.8c-1,0-2.1,0-3.1,0c-0.7,0-1,0.2-0.9,0.9c0,0.8,0,1.7,0,2.6c-0.6,0-1.1,0-1.6,0
	c-0.2,0-0.6,0.2-0.6,0.3c-0.1,0.6-0.1,1.2,0,1.7c0,0.2,0.6,0.3,1.1,0.5c0,0.4,0,0.8,0,1.2c-0.1,0.7,0.2,1.1,1,1.1l-2.1,16.2h27.4
	L231.4,79.8z M214.5,46.2l-0.2-0.2c-1.1,0.9-2.1,1.8-3.1,2.7c-1.1,1-1.6,2.5-1.6,4c0.1,1.6,1.3,2.8,2.8,3.2c1.4,0.2,2.8-0.8,3.1-2.2
	c0.1-0.5,0.3-1,0.3-1.5c1.7,2.4,4.4,3.3,6.7,0.5c0.1,0.4,0.2,0.8,0.4,1.2c0.3,0.8,1,1.3,1.8,1.3c0.8,0.1,1.7-0.4,2-1.2
	c0.6-1,0.5-2.2-0.3-3.1c-0.5-0.6-0.6-1.5-0.3-2.2c0.1-0.2,0.1-0.3,0.2-0.7c-0.6,0.2-1.1,0.4-1.6,0.6s-0.9,0.5-1.3,0.8
	c-0.2-1.4-0.8-2.6-1.7-3.6c-1.1-1.1-1.2-2.9-0.1-4l0,0c0.1-0.1,0.2-0.3,0.2-0.4c-4.2,1.5-6.6,4.3-6.7,8.9
	C214.1,49.3,213.9,48,214.5,46.2z M177.9,55.7c0.6,1,1.7,1.7,2.9,1.8c1.3,0.1,2.1-0.8,2.9-1.6c0.1,0.3,0.2,0.6,0.3,0.8
	c0.3,1,1.3,1.5,2.3,1.3c1.1-0.2,1.8-1.2,1.7-2.4c-0.1-0.5-0.2-1-0.5-1.5c-0.6-0.9-0.7-2.1-0.3-3.1c-0.6,0.4-1.1,0.7-1.5,1
	s-0.8,0.7-1,0.9c-0.4-0.9-0.9-1.8-1.4-2.7c-1.3-1.9-1.4-2.5-0.2-4.4c-3.7,0.9-5.2,3.5-5.7,7.1c-0.8-1.2-1.5-2.2-0.9-3.6
	c-0.6,0.4-1.3,0.8-1.8,1.2c-1.6,1.4-2.6,3.1-2.3,5.3c0.1,1.4,1.3,2.5,2.7,2.6c1.4,0,2.3-0.9,2.6-2.5C177.8,56,177.9,55.8,177.9,55.7
	z M148.5,54.3c-2.6,0.6-4.4,2.9-4.4,5.5c-0.7-0.9-0.8-2.1-0.2-3.1c-1.2,0.5-2.2,1.3-3,2.3c-0.7,0.8-1,1.9-0.8,2.9
	c0.2,1.1,1.2,1.9,2.3,2c1.1,0,1.8-0.7,2.1-2c0-0.1,0.1-0.2,0.1-0.4c0.5,0.8,1.3,1.3,2.2,1.4c0.9,0.2,1.9-0.3,2.3-1.1
	c0.1,0.2,0.2,0.4,0.4,0.6c0.4,0.5,0.9,1,1.7,0.8c0.7-0.2,1.2-0.9,1.2-1.7c0-0.4-0.1-0.8-0.2-1.1c-0.5-0.7-0.7-1.6-0.3-2.4l-0.2-0.1
	l-1.9,1.4c-0.3-0.6-0.6-1.3-1-2C148,56.6,147.9,55.3,148.5,54.3L148.5,54.3z"/>
<path class="st2" d="M203.2,117.7v-1.2l0.5-0.2c1.4-0.1,2.4-1.3,2.4-2.7c0-0.1,0-0.1,0-0.2c0-2,0-3.9,0-5.8V93.3
	c0-2.3-0.6-3-2.8-3.5v-1.1h0.8c4.2,0,8.5,0,12.7,0c2.8-0.1,5.7,0.5,8.2,1.7c3.4,1.7,5.8,5,6.3,8.9c0.6,3.3,0.4,6.7-0.7,9.9
	c-1.6,4.6-5,7.1-9.7,8.1c-1.7,0.3-3.4,0.5-5.1,0.5c-4,0.1-8,0-11.9,0C203.6,117.8,203.4,117.7,203.2,117.7z M210.6,102.6
	L210.6,102.6c0.1,3.5,0.1,7,0.1,10.5c0,1.6,0.7,2.2,2.3,2.2c1.7,0.1,3.3,0,5-0.2c3.6-0.3,6.6-2.8,7.5-6.3c0.9-3.2,1.1-6.5,0.4-9.8
	c-0.8-4.2-3.3-6.8-7.5-7.6c-2-0.3-3.9-0.4-5.9-0.3c-1.6,0-1.9,0.4-1.9,2C210.6,96.3,210.6,99.4,210.6,102.6L210.6,102.6z"/>
<path class="st2" d="M155.4,89.8v-1.1h8.1v1c-1.6,0.6-1.7,0.7-1.7,2.4c0,5.1,0,10.2,0,15.3c-0.1,1.6-0.3,3.1-0.8,4.6
	c-0.7,2.6-2.7,4.7-5.3,5.4c-3.6,1.2-7.4,1.2-11,0.1c-3.2-0.9-5.6-3.6-6-6.9c-0.2-1.2-0.3-2.4-0.3-3.6c0-4.9,0-9.8,0-14.7
	c0-0.3,0-0.6,0-0.8c-0.1-1.2-0.4-1.6-1.7-1.8v-1.1h8.1v1c-1.5,0.4-1.6,0.5-1.7,2.1c-0.1,2.2-0.1,4.5-0.1,6.8c0,3.2,0,6.4,0.1,9.7
	c-0.1,2,0.6,4,1.9,5.6c1.9,2.2,4.4,2.4,7,1.8c2.3-0.5,4.1-2.4,4.5-4.7c0.3-1.4,0.5-2.8,0.5-4.3c0.1-4.8,0-9.6,0-14.4v-0.5
	C157,90.5,156.8,90.2,155.4,89.8z"/>
<path class="st2" d="M194.8,94.6h-1.1c-0.5-2.2-2.2-3.1-4.1-3.6c-2-0.5-4.1-0.7-6.2-0.3c-2.9,0.4-5.4,2.2-6.5,4.9
	c-2.1,4.6-2.2,9.9-0.3,14.6c1.4,3.8,5.2,6.1,9.1,5.6c0.9,0,1.9-0.1,2.8-0.3c3-0.6,4.3-1.8,5.5-4.7h1.2c-0.1,1.1-0.1,2.1-0.2,3.2
	c-0.1,0.3-0.1,0.6-0.1,0.8c0.2,1.3-0.5,1.9-1.7,2.3c-4.6,1.6-9.6,1.8-14.3,0.5c-3.5-0.9-6.3-3.5-7.5-6.9c-1.7-4.3-1.8-9.1-0.2-13.4
	c1.3-4.2,4.8-7.4,9.1-8.4c4.5-1.1,9.2-0.9,13.6,0.6c0.6,0.1,1,0.7,0.9,1.3l0,0C194.7,92,194.8,93.3,194.8,94.6z"/>
<path class="st3" d="M185.9,129.3c1.6,0.8,2.1,1.8,1.9,3.3c-0.3,1.5-1.6,2.6-3.2,2.7c-1.1,0.1-2.2,0.2-3.2,0.2c-1.6,0-3.2,0-4.8,0
	l-0.2-0.1v-11.9l0.1-0.1c2.7,0,5.5,0,8.2,0.2c1.6,0,2.8,1.3,2.8,2.9c0,0.4-0.1,0.7-0.2,1.1C186.8,128.2,186.4,128.8,185.9,129.3z
	 M178.7,133.5c1.8,0,3.5,0,5.1,0c0.7,0,1.3-0.5,1.4-1.1c0.2-0.6,0-1.3-0.5-1.6c-0.4-0.3-0.9-0.5-1.4-0.5c-1.6-0.1-3.1,0-4.7,0
	L178.7,133.5z M178.7,128.2c1.7,0,3.3,0,4.9,0c0.7,0,1.4-0.5,1.4-1.2v-0.1c0.1-0.7-0.5-1.3-1.2-1.4c-0.1,0-0.1,0-0.2,0
	c-1.7-0.1-3.3,0-5,0L178.7,128.2z"/>
<path class="st4" d="M216.2,135.5h-2.4v-12c0.8,0,1.7,0,2.6,0c0.3,0.1,0.5,0.2,0.7,0.5l6.8,8.7v-9.2h2.3v12c-0.9,0-1.7,0-2.6,0
	c-0.2-0.1-0.4-0.2-0.6-0.4c-2-2.6-4-5.2-6.1-7.9l-0.7-0.9V135.5z"/>
<path class="st4" d="M141.9,123.4c3,0.2,6-0.3,8.9,0.5c2.2,0.5,3.8,2.5,3.8,4.8c0.1,0.9,0,1.9-0.2,2.8c-0.7,2.5-2.6,3.6-5,3.8
	s-5,0-7.5,0V123.4z M144.3,133.6c1.1,0,2.2,0,3.3,0c0.5,0,0.9-0.1,1.3-0.1c1.9-0.3,3-1.3,3.2-3c0.1-0.8,0.1-1.6-0.1-2.3
	c-0.1-1.3-1.1-2.3-2.4-2.5c-1.8-0.3-3.5-0.3-5.4-0.5L144.3,133.6z"/>
<path class="st3" d="M169.2,123.5h2.3v0.8c0,2-0.1,4,0,6c0.1,3.4-2,5.3-5,5.6c-1.3,0.1-2.6-0.1-3.9-0.4c-1.9-0.5-3.2-2.2-3.2-4.1
	c-0.1-2.6,0-5.1,0-7.7h2.3v7c0,2.1,0.9,3.1,3,3.4c0.7,0.1,1.4,0,2.1-0.1c1.4-0.3,2.4-1.6,2.3-3c0-2.2,0-4.4,0-6.5
	C169.2,124,169.2,123.8,169.2,123.5z"/>
<path class="st5" d="M167.7,153.5l5.8,0.1l7-1.3c1-0.2,1.9-0.5,2.8-0.8c3.4-1.2,6.8-1.9,10.4-2.3h0.8h3.3l3.2,0.5l2.9,0.8l0.2,0.1
	l0.3,0.1l5.6,2.4l-0.2,0.6l-1.1-0.3c-0.2-0.2-0.4-0.3-0.6-0.4c-1.7-0.6-3.4-1.3-5.1-1.8c-1.6-0.4-3.2-0.6-4.8-0.9
	c-2.7-0.3-5.5,0-8.1,0.6l-0.7,0.2l-13.4,3.2l-7.7,0.4c-2.4-0.2-4.8-0.9-7-2l-4.4-3.1l0.4-0.9c1.9,1.7,4,3,6.4,3.9
	C165,152.9,166.4,153.2,167.7,153.5z"/>
<path class="st6" d="M195.7,133.6h7.1v1.8h-9.4v-12h2.3L195.7,133.6z"/>
<path class="st6" d="M209,123.5v12h-2.3v-12H209z"/>
<path class="st7" d="M149.4,149.7l-1-0.1h7.3l-3,0.1H149.4z"/>
<path class="st7" d="M211.4,149.6v-0.1h7.1l-0.6,0.1H211.4L211.4,149.6z"/>
<path class="st6" d="M206.3,64.7c-0.7,0-1-0.4-1-1.1c0-0.4,0-0.8,0-1.2c-0.4-0.2-1-0.2-1.1-0.5c-0.1-0.6-0.1-1.2,0-1.7
	c0-0.1,0.4-0.3,0.6-0.3c0.5,0,1,0,1.6,0c0-0.9,0-1.7,0-2.6c0-0.7,0.2-1,0.9-0.9c1,0,2.1,0,3.1,0c0.6,0,0.8,0.2,0.8,0.8
	c0,0.9,0,1.8,0,2.7h4.7c0-0.9,0-1.8,0-2.7c0-0.6,0.2-0.8,0.8-0.8c1,0,2.1,0,3.1,0c0.6,0,0.9,0.3,0.8,0.9c0,0.8,0,1.7,0,2.6h4.7
	c0-0.8,0-1.7,0-2.5c0-0.6,0.1-0.9,0.9-0.9c1,0,2.1,0,3.1,0c0.6,0,0.8,0.2,0.8,0.8c0,0.9,0,1.8,0,2.7h1.3c1.1,0,1.1,0,1.1,1.1v0.1
	c0,1,0,1-1.1,1.2c0,0.3,0,0.6-0.1,0.9c0,1.3,0,1.3-1.3,1.5l1.2,15.1h-26.1c0.1-1.9,0.3-3.6,0.4-5.3c0.3-3.1,0.6-6.2,0.8-9.3
	C206.6,65,206.4,64.8,206.3,64.7z M220.8,75c0-2.1,0.1-4,0-6c-0.2-1.3-1.3-2.2-2.6-2c-1.1,0.1-2,1.1-2.1,2.3c0,1.8,0,3.6,0,5.3
	c0,0.2,0,0.3,0.1,0.5L220.8,75z"/>
<path class="st3" d="M169.3,66.5c-0.6,0-0.9-0.3-0.8-1c0-0.3,0-0.7,0-1c-1-0.3-1.3-0.8-1-1.8c0.1-0.2,0.3-0.4,0.6-0.4
	c0.5,0,1,0,1.5,0c0-0.8,0-1.5,0-2.2s0.2-1,0.9-0.9s1.7,0,2.5,0c0.6,0,0.8,0.2,0.8,0.8s0,1.5,0,2.3h4.2c0-0.8,0-1.5,0-2.3
	c0-0.5,0.2-0.8,0.8-0.8c0.9,0,1.8,0,2.7,0c0.6,0,0.8,0.2,0.8,0.8s0,1.5,0,2.2h4.2c0-0.8,0-1.6,0-2.3c0-0.6,0.2-0.8,0.8-0.8
	c0.9,0,1.8,0,2.6,0c0.6,0,0.8,0.2,0.8,0.8s0,1.5,0,2.3h1.4c0.5,0,0.7,0.2,0.7,0.7c0,1.2,0,1.2-1,1.4c-0.4,0.7,0.6,2.2-1.3,2
	l1.1,13.4h-23.1c0.2-2.3,0.4-4.5,0.6-6.7c0.2-2,0.4-4,0.5-6.1C169.5,66.9,169.4,66.7,169.3,66.5z M177.9,75.5h4.2c0-1.8,0-3.5,0-5.3
	c-0.1-1.1-1-1.9-2.1-1.8c-1.1,0-2,0.9-2,1.9C178,72.1,178,73.8,177.9,75.5L177.9,75.5z"/>
<path class="st2" d="M138,71l0.3-1.1c-1.3,0-0.8-1-1-1.6c-0.8,0.1-0.8-0.5-0.8-1.1c0.1-1,1-0.3,1.6-0.7c0-0.4,0-1,0-1.5
	s0.2-0.7,0.7-0.7h0.1c0.8,0,1.8-0.2,2.3,0.2c0.5,0.4,0.2,1.4,0.3,2.2h3.1c0-0.6,0-1.1,0-1.6s0.2-0.7,0.7-0.7c0.6,0,1.3,0,1.9,0
	c0.6,0,0.7,0.2,0.7,0.7s0,1.1,0,1.7h3.2c0-0.5,0-0.9,0-1.4c-0.1-0.8,0.2-1,1-0.9c0.4,0,0.8,0,1.2,0c1.1,0,1.1,0,1.1,1.1v1.1
	c0.5,0.5,1.7-0.4,1.6,1c0,0.5-0.1,0.9-0.7,0.8c-0.3,0.6,0.4,1.7-1,1.6l0.8,10.3h-17.6c0.2-1.8,0.3-3.4,0.4-5.1
	C137.9,73.7,138,72.4,138,71z M147.8,76.8c0-1.4,0-2.6,0-3.9c0-0.8-0.7-1.5-1.5-1.6s-1.5,0.5-1.6,1.3c-0.1,1.4,0,2.8,0,4.1
	L147.8,76.8z"/>
<path class="st2" d="M214.5,46.2c-0.6,1.9-0.4,3.1,0.8,4.2c0-4.6,2.4-7.5,6.7-8.9c-0.1,0.1-0.2,0.3-0.2,0.4c-1.1,1.1-1.1,2.9,0.1,4
	l0,0c0.9,1,1.6,2.3,1.7,3.6c0.4-0.3,0.9-0.6,1.3-0.8c0.5-0.2,1-0.4,1.6-0.6l-0.2,0.7c-0.3,0.7-0.2,1.6,0.3,2.2
	c0.7,0.9,0.9,2.1,0.3,3.1c-0.5,1-1.7,1.5-2.8,1c-0.5-0.2-0.8-0.6-1-1.1c-0.2-0.4-0.3-0.8-0.4-1.2c-2.4,2.8-5,2-6.7-0.5
	c-0.1,0.5-0.2,1-0.3,1.5c-0.4,1.4-1.7,2.3-3.1,2.2c-1.5-0.3-2.7-1.6-2.8-3.2c-0.1-1.5,0.5-2.9,1.6-4C212.3,47.8,213.5,47,214.5,46.2
	L214.5,46.2z M219.6,45.4c-1,0.9-1.7,2.1-1.7,3.5c-0.1,0.9,0,1.7,0.3,2.6c0.2,0.6,0.8,1,1.5,0.8l0,0c0.6-0.1,1.1-0.7,1-1.4
	c0-0.5-0.1-1.1-0.3-1.6C219.7,48.2,219.5,46.8,219.6,45.4L219.6,45.4z M212.9,49.5c-0.4,0.9-0.7,1.6-1.1,2.3
	c-0.3,0.6-0.3,1.4,0.1,1.9c0.3,0.4,0.9,0.5,1.3,0.3c0.6-0.3,0.9-1,0.8-1.7v-0.1C213.6,51.3,213.3,50.4,212.9,49.5L212.9,49.5z
	 M224.9,50.4c-0.5,0.5-0.8,1.2-0.6,1.9c0.1,0.4,0.3,0.8,0.6,1.1c0,0,0.4,0,0.4-0.1c0.1-0.4,0.2-0.8,0.1-1.2
	C225.3,51.5,225.1,50.9,224.9,50.4L224.9,50.4z"/>
<path class="st2" d="M177.9,55.7c-0.1,0.1-0.1,0.3-0.1,0.4c-0.3,1.6-1.2,2.5-2.6,2.5c-1.4,0-2.6-1.1-2.7-2.6
	c-0.4-2.2,0.7-3.9,2.2-5.3c0.6-0.5,1.2-0.9,1.8-1.2c-0.6,1.4,0.2,2.4,0.9,3.6c0.6-3.5,2-6.2,5.7-7.1c-1.2,1.9-1.1,2.5,0.2,4.4
	c0.5,0.9,1,1.8,1.4,2.7c0.2-0.2,0.6-0.6,1-0.9s0.9-0.6,1.5-1c-0.4,1-0.3,2.2,0.3,3.1c0.3,0.5,0.4,1,0.5,1.5c0.1,1.1-0.6,2.1-1.7,2.4
	c-1,0.2-2-0.4-2.3-1.3c-0.1-0.2-0.2-0.5-0.3-0.8c-0.8,0.8-1.6,1.7-2.9,1.6C179.6,57.3,178.5,56.7,177.9,55.7z M180.7,49.6
	c-0.8,1-1.3,2.3-1.3,3.6c0,0.6,0.1,1.3,0.3,1.9c0.2,0.6,0.9,0.9,1.5,0.7c0.6-0.1,1-0.7,0.9-1.2c0-0.6-0.2-1.2-0.3-1.8
	C181.5,51.7,181.1,50.7,180.7,49.6L180.7,49.6z M175.3,53c-0.3,0.7-0.6,1.2-0.8,1.8s-0.4,1.1,0.1,1.6c0.3,0.2,0.6,0.3,1,0.3
	c0.6-0.2,0.9-0.8,0.7-1.4l0,0C175.9,54.5,175.6,53.7,175.3,53z M186,53.5c-0.6,0.6-0.8,1.5-0.4,2.3c0.1,0.2,0.4,0.3,0.6,0.4
	c0.1-0.2,0.3-0.4,0.3-0.6c0-0.2,0-0.5-0.1-0.7C186.3,54.5,186.1,54,186,53.5z"/>
<path class="st4" d="M148.5,54.3c-0.7,1-0.6,2.3,0.2,3.2c0.4,0.6,0.7,1.3,1,2l1.9-1.4l0.2,0.1c-0.4,0.8-0.3,1.7,0.3,2.4
	c0.2,0.3,0.3,0.7,0.2,1.1c0,0.8-0.5,1.4-1.2,1.7c-0.8,0.2-1.2-0.3-1.7-0.8c-0.1-0.2-0.3-0.4-0.4-0.6c-0.5,0.8-1.4,1.2-2.3,1
	c-0.9-0.1-1.7-0.6-2.2-1.4c-0.1,0.2-0.1,0.3-0.1,0.4c-0.3,1.3-1,2-2.1,2c-1.1-0.1-2.1-0.9-2.3-2c-0.2-1,0.1-2.1,0.8-2.9
	c0.8-1,1.8-1.8,3-2.3c-0.6,1-0.5,2.2,0.2,3.1C144.1,57.2,145.9,54.9,148.5,54.3z M146.9,57.1c-0.6,0.7-1,1.7-0.9,2.6
	c0.1,0.5,0.4,0.9,0.7,1.3c0.1,0.1,0.7,0,0.7-0.2c0.1-0.5,0.2-0.9,0.1-1.4C147.3,58.6,147.1,57.9,146.9,57.1z M142.5,59.6
	c-0.2,0.4-0.4,0.9-0.6,1.3c-0.1,0.4-0.1,0.8,0,1.2c0,0.1,0.8,0.2,0.8,0.1c0.2-0.3,0.4-0.8,0.4-1.2C142.9,60.6,142.7,60.1,142.5,59.6
	z M150.8,60h-0.2c-0.1,0.5-0.2,1-0.2,1.6c0,0.2,0.4,0.4,0.5,0.6c0.1-0.3,0.3-0.5,0.2-0.8C151.1,60.9,150.9,60.4,150.8,60L150.8,60z"
	/>
<path class="st5" d="M206.3,64.7c0.1,0.2,0.3,0.3,0.3,0.5c-0.2,3.1-0.5,6.2-0.8,9.3c-0.1,1.7-0.3,3.5-0.4,5.3h26.1l0.1,1h-27.4
	L206.3,64.7z"/>
<path class="st5" d="M169.3,66.5c0.1,0.2,0.2,0.4,0.2,0.6c-0.1,2-0.3,4-0.5,6c-0.2,2.2-0.4,4.4-0.6,6.7h23.1v0.9h-24.1L169.3,66.5z"
	/>
<path class="st5" d="M138,71c-0.1,1.3-0.1,2.7-0.2,4c-0.1,1.7-0.3,3.3-0.4,5.1H155v0.7h-18.4c0.2-1.4,0.3-2.7,0.5-4
	c0.2-1.8,0.5-3.7,0.7-5.5C137.9,71.2,138,71.1,138,71z"/>
<path class="st8" d="M210.6,102.6v-9.4c0-1.6,0.3-2,1.9-2c2-0.1,3.9,0.1,5.9,0.3c4.2,0.7,6.7,3.3,7.5,7.6c0.6,3.2,0.5,6.6-0.4,9.8
	c-0.9,3.5-3.9,6-7.5,6.3c-1.7,0.2-3.3,0.2-5,0.2c-1.6,0-2.2-0.7-2.3-2.2c0-3.5,0-7,0-10.5L210.6,102.6z"/>
<path class="st5" d="M175.9,201l-7.9-7.9c-1.5-2.2-3.1-4.4-4.5-6.6c-0.8-1.2-1.4-2.5-2-3.8c-0.9-2.5-1.9-4.9-2.6-7.4
	c-1-3.6-1.6-7.3-1.7-11c-0.1-3.3,0-6.5,0.4-9.8c0-0.3,0.1-0.6,0.2-0.9l0.8,0.6l-0.1,1.1l-0.2,2.3v2v1.8v1.2l0.6,7l1.1,5.6l1.5,4.6
	l2.1,4.7c0,0.1,0.1,0.3,0.2,0.4c2.8,5.2,6.5,9.9,11,13.9c3.4,3.1,7.2,5.8,11.2,8.1l0.9,0.6l-0.2,0.9
	C182.9,206.2,179.3,203.7,175.9,201z"/>
<path class="st8" d="M178.7,133.5v-3.3c1.6,0,3.2,0,4.7,0c0.5,0,1,0.2,1.4,0.5c0.5,0.4,0.7,1,0.5,1.6c-0.2,0.7-0.8,1.1-1.5,1.1
	C182.1,133.6,180.4,133.5,178.7,133.5z"/>
<path class="st8" d="M178.7,128.2v-2.8c1.7,0,3.3-0.1,5,0c0.7,0,1.3,0.5,1.3,1.2c0,0.1,0,0.1,0,0.2c0,0.7-0.6,1.4-1.3,1.4h-0.1
	C182,128.3,180.4,128.2,178.7,128.2z"/>
<path class="st8" d="M144.3,133.6v-8.4c1.8,0.2,3.6,0.2,5.4,0.5c1.3,0.2,2.3,1.2,2.4,2.5c0.1,0.8,0.2,1.6,0.1,2.3
	c-0.2,1.7-1.3,2.6-3.2,3c-0.4,0.1-0.9,0.1-1.3,0.1C146.5,133.6,145.4,133.6,144.3,133.6z"/>
<path class="st9" d="M203.9,150.6l0.2,0.1L203.9,150.6z"/>
<path class="st1" d="M220.8,75h-4.6c0-0.2,0-0.3-0.1-0.5c0-1.8,0-3.6,0-5.3c0-1.3,1.1-2.3,2.4-2.3c1.2,0,2.1,0.9,2.3,2.1
	C220.8,70.9,220.8,72.9,220.8,75z"/>
<path class="st1" d="M177.9,75.6c0-1.8,0-3.5,0-5.2c0-1.1,0.9-1.9,2-1.9c1.1-0.1,2,0.8,2.1,1.9c0.1,1.7,0,3.5,0,5.3L177.9,75.6z"/>
<path class="st1" d="M147.8,76.8h-3.1c0-1.4-0.1-2.8,0-4.1c0.1-0.8,0.8-1.4,1.6-1.3s1.5,0.7,1.5,1.6
	C147.8,74.2,147.8,75.5,147.8,76.8z"/>
<path class="st1" d="M219.6,45.4c-0.2,1.4,0.1,2.8,0.7,4c0.2,0.5,0.3,1,0.3,1.5c0.1,0.7-0.4,1.3-1,1.4c-0.6,0.2-1.3-0.1-1.5-0.8
	c0,0,0,0,0-0.1c-0.2-0.8-0.3-1.7-0.3-2.6C217.9,47.6,218.6,46.3,219.6,45.4z"/>
<path class="st1" d="M212.9,49.5l1.1,2.6v0.1c0.2,0.7-0.2,1.4-0.8,1.7c-0.4,0.2-1,0.1-1.3-0.3c-0.4-0.6-0.5-1.3-0.1-1.9
	C212.2,51.1,212.5,50.4,212.9,49.5z"/>
<path class="st1" d="M224.9,50.4c0.2,0.5,0.4,1.1,0.5,1.6c0,0.4,0,0.8-0.1,1.2c0,0.1-0.4,0.1-0.4,0.1c-0.3-0.3-0.4-0.7-0.6-1.1
	C224.2,51.6,224.4,50.9,224.9,50.4z"/>
<path class="st1" d="M180.7,49.6c0.4,1,0.7,2,1.1,3c0.2,0.6,0.3,1.2,0.3,1.8c0.1,0.6-0.3,1.1-0.9,1.2c-0.6,0.2-1.2-0.1-1.5-0.7
	c-0.2-0.6-0.3-1.2-0.3-1.8C179.4,51.9,179.9,50.6,180.7,49.6z"/>
<path class="st1" d="M175.3,53c0.3,0.7,0.6,1.5,0.9,2.2c0.2,0.6-0.1,1.2-0.6,1.4l0,0c-0.4,0.1-0.7,0-1-0.3c-0.4-0.4-0.4-1.1-0.1-1.6
	C174.7,54.2,175,53.7,175.3,53z"/>
<path class="st1" d="M186,53.5c0.1,0.5,0.3,0.9,0.4,1.4c0.1,0.2,0.1,0.5,0.1,0.7c-0.1,0.2-0.2,0.4-0.3,0.6c-0.2-0.1-0.5-0.2-0.6-0.4
	C185.2,55.1,185.4,54.1,186,53.5z"/>
<path class="st1" d="M146.9,57.1c0.3,0.8,0.5,1.5,0.6,2.3c0.1,0.5,0,1-0.1,1.4c0,0.1-0.6,0.2-0.7,0.2c-0.3-0.4-0.6-0.8-0.7-1.3
	C145.9,58.7,146.2,57.8,146.9,57.1z"/>
<path class="st1" d="M142.5,59.6c0.3,0.5,0.5,1,0.6,1.5c0,0.4-0.1,0.8-0.4,1.2c0,0.1-0.8,0-0.8-0.1c-0.1-0.4-0.1-0.8,0-1.2
	C142.1,60.4,142.2,60,142.5,59.6z"/>
<path class="st1" d="M150.8,60c0.2,0.4,0.3,0.9,0.4,1.3c0,0.2-0.2,0.5-0.2,0.8c-0.2-0.2-0.5-0.4-0.5-0.6c0-0.5,0.1-1,0.2-1.5H150.8z
	"/>
<path class="st5" d="M198.8,188.4l-4.2,12.4l-1,2.9l-2.2-1c-1.6-1-3.1-1.9-4.7-3c-0.9-0.6-0.9-0.6-0.2-1.5l4.4,2.8l2.2,1.3l0.8-2.6
	l3.1-9.1c1-2.8,1.9-5.6,2.9-8.3c0.7-2,1.4-4.1,2.1-6.1l0.9-2.6l1.2-3.5l1.3-3.9l0.1-0.2l0.1-0.3l1.5-4.4c0.1-0.3,0.2-0.5,0.3-0.8
	l1.9-5.4c0.4,0.1,0.5,0.3,0.3,0.6c-0.2,0.7-0.4,1.4-0.6,2l-3.5,10.3l-0.1,0.2v0.1c-1.4,4.2-2.8,8.3-4.2,12.5
	C200.5,183.4,199.6,185.9,198.8,188.4z"/>
<path class="st5" d="M179.9,192.8c-0.5-0.7-0.9-1.4-1.4-2.1c-0.4-0.4-0.3-1,0.1-1.4l0.1-0.1c1.3,2.3,3,4.4,4.9,6.2l0.5-0.9l2.9-5.6
	l3.6-7l6.4-12.3l1.7-3.2l0.1-0.2v-0.1l1.7-3.2l1.8-3.5l3-5.8c0.7,0.1,0.4,0.4,0.2,0.8c-1,2-2.1,4-3.1,6l-5.4,10.9
	c-0.1,0.1-0.1,0.2-0.1,0.4l-5.3,10.4l-3.8,7.4l-3.9,7.6C182.3,195.8,181,194.4,179.9,192.8z"/>
<path class="st10" d="M205.6,168.4l0.1-0.2L205.6,168.4z"/>
<path class="st11" d="M158.3,161.4L158.3,161.4z"/>
<path class="st2" d="M176.3,160.3l4.2,7.3c1.9,3.3,3.8,6.6,5.8,9.9l-2,3l-4.5-7.6l-8.7-14.9c1-0.1,2-0.3,3.1-0.4
	c0.3,0,0.5,0.2,0.6,0.4C175.4,158.7,175.8,159.5,176.3,160.3z"/>
<path class="st5" d="M171.1,158c2.9,5,5.8,9.9,8.7,14.9c1.5,2.5,3,5.1,4.5,7.6l-0.6,0.8l-6.4-10.9l-2.1-3.6l-4.2-7.3l-0.8-1.3h0.9
	V158z"/>
<path class="st12" d="M174.4,188.4l-0.1-0.1C174.3,188.3,174.4,188.4,174.4,188.4z"/>
<path class="st2" d="M178.9,156.5c0.9-0.3,1.9-0.7,2.8-1c0.1,0,0.4,0.2,0.5,0.3c1.8,3.1,3.7,6.2,5.5,9.3l3.1,5.3l-0.7,1.3l-1.3,1.8
	L178.9,156.5z"/>
<path class="st2" d="M189.9,154.1l5.6,9.5l-2,3.1L186,154c0.9-0.3,1.8-0.7,2.7-1c0.2,0,0.4,0.1,0.5,0.2
	C189.5,153.4,189.7,153.7,189.9,154.1z"/>
<path class="st5" d="M188.9,173.6l-0.5,0.7c-1-1.7-2.1-3.4-3.1-5.1c-2.3-4-4.7-8-7-12l-0.2-0.5l0.8-0.2L188.9,173.6z"/>
<path class="st5" d="M193,167.3c-0.2-0.2-0.4-0.5-0.6-0.8l-4.3-7.3l-2.9-5.1l0.8-0.2l7.4,12.7L193,167.3z"/>
<path class="st2" d="M193.3,151.7l3.2-0.6c0.2,0.1,0.3,0.3,0.4,0.5c1,1.7,2,3.4,3,5l-1.7,2.7l-0.3,0.3L193.3,151.7z"/>
<path class="st13" d="M236.9,149.5c-2,0-4,0-5.9,0c-1.2,0-2.3,0-3.5,0c-2.7,0-5.4,0-8.1,0h-0.9l-0.6,0.1h-6.5l-1.4,3.5l-0.2,0.6
	l-1.1-0.3c-0.2-0.2-0.4-0.3-0.6-0.4c-1.7-0.6-3.4-1.3-5.1-1.8c-1.6-0.4-3.2-0.6-4.8-0.9c-2.7-0.3-5.5,0-8.1,0.6l-0.7,0.2l-13.4,3.2
	l-7.7,0.4c-2.4-0.3-4.8-0.9-7-2l-4.4-3.2h-1h-0.3l-3,0.1h-3.2l-1-0.1H136h-13.4c0,0.5,0,0.9,0.1,1.4c0.9,8.6,3.2,16.9,7,24.6
	c1.6,3.5,3.7,6.8,6,9.9c0.1,0.2,0.2,0.4,0.3,0.5c2.3,3.1,4.9,6,7.7,8.6c1.2,1.1,2.5,2.2,3.7,3.2l2,1.6l3,2.2l3.4,2.2l5.2,3
	c0-0.1,0-0.2,0-0.3c0,0.1,0,0.2,0,0.3l6.8,3.2l7.7,2.9c1.4,0.4,2.9,0.9,4.3,1.4c3.9,1.4,7.8,0.9,11.6-0.6l7.6-2.7l6.9-3.1l3.6-2
	l0.6-0.3l3.1-1.9l3-2.1l1.8-1.4l1.5-1.2c1.3-1.2,2.7-2.3,4-3.5c2.8-2.6,5.4-5.5,7.6-8.6c0.5-0.7,1-1.3,1.4-2c5.5-8,9.4-17,11.4-26.5
	c0.6-2.8,0.9-5.7,1.4-8.6h-8.4V149.5z M171.1,158c1-0.1,2-0.3,3.1-0.4c0.3,0,0.5,0.2,0.6,0.4c0.5,0.8,1,1.6,1.5,2.4l4.2,7.3
	c1.9,3.3,3.8,6.6,5.8,9.9h0.1l2-3.2c-1-1.7-2.1-3.4-3.1-5.1c-2.3-4-4.7-8-7-12l-0.2-0.5l0.8-0.2c0.9-0.3,1.9-0.7,2.8-1
	c0.1-0.1,0.4,0.2,0.5,0.3c1.8,3.1,3.7,6.2,5.5,9.3l0,0l3.1,5.3l2.2-3.2c-0.2-0.2-0.4-0.5-0.6-0.8c-1.4-2.4-2.9-4.9-4.3-7.3l0,0
	l-2.9-5.1l0.7-0.2c0.9-0.3,1.8-0.7,2.8-1c0.2,0,0.4,0.1,0.5,0.2c0.2,0.3,0.4,0.6,0.6,0.9l5.6,9.5l1.1-1.6l0.9-1.6l-5.1-8.5l1-0.2
	l3.2-0.6c-0.1-0.2,0-0.5,0.1-0.7c-0.1,0.2-0.1,0.4-0.1,0.7c0.2,0.1,0.3,0.3,0.4,0.5c1,1.7,2,3.4,3,5l0.2-0.1l1.7-2.7
	c0.2-0.7,0.6-1,1.4-0.7s1.4,0.4,2,0.5c0.6,0.2,0.4,0.5,0.2,0.8c-1,2-2.1,4-3.1,6c-1.9,3.6-3.7,7.3-5.6,10.9
	c-0.1,0.1-0.1,0.2-0.1,0.4c0.1,0.6,0.1,1.2,0.2,1.8c-0.1-0.6-0.1-1.2-0.2-1.8l-5.3,10.4l0,0l-3.8,7.4c0.1,0.2,0.2,0.4,0.2,0.6
	c-0.1-0.2-0.2-0.4-0.2-0.6l-3.9,7.6c-1.5-1.2-2.8-2.6-3.9-4.2c-0.5-0.7-0.9-1.4-1.4-2.1c-0.4-0.4-0.3-1,0.1-1.4l0.1-0.1
	c0.6-0.9,1.1-1.9,1.7-2.8c1.1-1.6,2.2-3.2,3.2-4.9l0.1-0.4c-2.2-3.6-4.3-7.3-6.5-10.9l-2.1-3.6l0,0l-4.2-7.3l-0.8-1.3L171.1,158
	L171.1,158z M188.2,204.2c-0.2,0.4-0.4,0.8-0.6,1.2l-0.8,2l-0.2,0.9c-3.8-2.2-7.3-4.6-10.7-7.4L168,193l0,0
	c-1.5-2.2-3.1-4.4-4.5-6.6c-0.8-1.2-1.4-2.5-2-3.8c-0.1,0.2-0.2,0.4-0.2,0.6c0.1-0.2,0.2-0.4,0.2-0.6c-0.9-2.5-1.9-4.9-2.6-7.4
	c-1-3.6-1.6-7.3-1.7-11c-0.1-3.3,0-6.5,0.3-9.8c0-0.3,0.1-0.6,0.2-0.9l0.8,0.6l2.5,1.5c0.1-0.1,0.1-0.3,0.2-0.5
	c-0.1,0.2-0.1,0.3-0.2,0.5c2.2,1.3,4.6,2,7.2,2.1c0.5,0.1,0.6,0.4,0.6,0.9c-0.1,1.2-0.1,2.3-0.1,3.5c0,0.8,0,1.7,0,2.5l0.1,2.6
	l0.2,2.4l0.2,2.1l0.3,1.7l1.7,7.5l2.6,6.3c0.2,0.4,0.4,0.7,0.5,1.1l0.1,0.1v0.2c0.3,0,0.4-0.2,0.4-0.3c0,0.2-0.1,0.3-0.4,0.3
	l0.3,0.4l4.4,6.2c0.1,0.1,0.1,0.1,0.2,0.2c0.1-0.4,0.1-0.8,0.2-1.2c-0.1,0.4-0.1,0.8-0.2,1.2c2,2,4.1,4.1,6.1,6
	c0.8,0.7,1.6,1.4,2.5,1.9C188.2,203.6,188.4,203.9,188.2,204.2L188.2,204.2z M205.5,168.5c0,0.1,0,0.3,0.1,0.4
	C205.6,168.8,205.6,168.7,205.5,168.5z M209.8,155.8c-0.2,0.7-0.4,1.4-0.7,2c0.1,0.4,0.2,0.8,0.2,1.2c0-0.4-0.1-0.8-0.2-1.2
	l-3.5,10.3l-0.1,0.2v0.1l0,0c-1.4,4.2-2.8,8.3-4.2,12.5c-0.8,2.5-1.6,4.9-2.5,7.4l-4.2,12.4c-0.3,0.9-0.6,1.9-1,2.9l-2.2-1l0,0
	c-1.6-1-3.1-1.9-4.7-3c-0.9-0.6-0.9-0.6-0.2-1.5c0.2-0.6,0.4-1.3,0.7-1.9c0.3-0.6,0.7-1.5,1-2.2l0,0c0.1-0.2,0.2-0.4,0.3-0.6
	c0.8-1.6,1.5-3.2,2.2-4.8l1.4-3.2l0,0l1.2-2.4c0.5-1,0.9-2.1,1.4-3.1c0.6-1.4,1.2-2.7,1.9-4l0.8-1.8l3.9-8.5
	c0.1-0.2,0.2-0.5,0.4-0.8l1-2.1l1-2.2l1.5-3.4c0.4-0.9,0.8-1.9,1.2-2.8c0.1-0.2,0.5-0.3,0.7-0.4l1.3,0.4l0,0l1.1,0.6
	C210,155.2,210,155.4,209.8,155.8L209.8,155.8z"/>
<path class="st5" d="M198,159.7l-0.6,0.7l-5.1-8.5l1-0.2L198,159.7z"/>
<path class="st14" d="M205.6,166.1l0.1-0.2L205.6,166.1z"/>
<path class="st15" d="M211.4,149.6l-1.4,3.5l-5.6-2.4l-0.3-0.1l-0.2-0.1l-2.9-0.8l-3.2-0.5h-3.3h-0.8c-3.5,0.4-7,1.1-10.4,2.3
	c-0.9,0.3-1.9,0.5-2.8,0.8l-6.9,1.3l0,0l-5.8-0.1c-1.3-0.3-2.7-0.6-4-1c-2.3-0.9-4.5-2.2-6.4-3.9c0.6-2,1.7-3.7,3.3-5
	c1-0.8,2-1.5,3-2.1c0.4-0.2,0.6-0.2,1,0.1c1.1,0.8,2.2,1.5,3.4,2.3l5.2,1.4c0.2,0.1,0.5,0.1,0.7,0.2l6.5-0.3
	c2.6-0.6,5.1-1.4,7.7-1.9c1.8-0.2,3.7-0.4,5.5-0.4h1.5l2.7,0.3l2.9,0.6l3.7,1.2C207.1,146,209.4,147.5,211.4,149.6
	C211.3,149.6,211.3,149.6,211.4,149.6z"/>
<path class="st15" d="M207.1,154.1L207.1,154.1c-0.2,0.1-0.6,0.2-0.7,0.4c-0.5,0.9-0.8,1.8-1.2,2.8l-1.5,3.3l-1,2.2l0,0l-1,2.1
	l-0.4,0.8c-1.3,2.8-2.6,5.7-3.9,8.5l-0.7,1.8c0,0.2,0.1,0.4,0.1,0.6c0-0.2-0.1-0.4-0.1-0.6c-0.6,1.3-1.3,2.7-1.9,4
	c-0.5,1-0.9,2.1-1.4,3.1l-1.2,2.4l-1.4,3.2c-0.7,1.6-1.5,3.2-2.2,4.7c-0.1,0.2-0.2,0.4-0.3,0.6c-0.3,0.7-0.7,1.4-1,2.2
	c-0.3,0.7-0.5,1.3-0.7,1.9l4.4,2.8l0,0l2.2,1.3l0.8-2.6l0,0l3.1-9.1c1-2.8,2-5.6,2.9-8.3c0.7-2,1.4-4.1,2.1-6.1
	c0-0.3-0.1-0.6-0.1-0.8c0,0.3,0.1,0.6,0.1,0.8l0.9-2.6l1.2-3.5l1.4-3.9l0.1-0.2l0.1-0.3l1.5-4.4c0.1-0.2,0.2-0.5,0.3-0.8l1.9-5.4
	l-1.1-0.6L207.1,154.1z"/>
<path class="st15" d="M187.9,203.4c-0.9-0.6-1.7-1.2-2.5-1.9c-2.1-2-4.1-4-6.1-6c-0.1-0.1-0.2-0.1-0.2-0.2l-4.4-6.2l0,0l-0.3-0.4
	v-0.2l-0.1-0.1c-0.2-0.4-0.4-0.7-0.5-1.1l-2.6-6.2l-1.7-7.4l-5.2-5.2l5.2,5.2l-0.3-1.7l-0.2-2.2l-0.2-2.4l-0.1-2.6
	c0-0.8-0.1-1.7,0-2.5c0-1.2,0-2.3,0.1-3.5c0-0.5-0.1-0.8-0.6-0.9c-2.5-0.1-5-0.8-7.2-2.1l-2.5-1.5l-0.1,1.1l-0.2,2.3v2v1.8l0,0v0.6
	c0,0.2,0,0.4,0,0.5l0.6,7l1.1,5.7l1.5,4.6l2.1,4.7c0,0.1,0.1,0.3,0.2,0.4c2.8,5.2,6.5,9.9,11,13.9c3.4,3.1,7.2,5.8,11.2,8.1l0.9,0.6
	l0.8-2l0.6-1.2C188.4,203.8,188.3,203.6,187.9,203.4z"/>
<path class="st15" d="M198.7,166.4l0.1-0.2v-0.1l0,0l1.7-3.2l1.8-3.5l3-5.8c-0.7-0.2-1.4-0.3-2-0.6c-0.6-0.2-1.2,0-1.4,0.7l-1.8,2.7
	l-0.2,0.1l-1.7,2.7l-0.3,0.3l-0.5,0.7l-0.9,1.6l-1.1,1.6l-2,3l-0.4,0.7l-2.2,3.2l-0.7,1.3l-1.3,1.8l-0.5,0.7l-2,3.2h-0.1l-2,3
	l-0.6,0.8l-0.1,0.4l0,0c-1.1,1.6-2.2,3.2-3.2,4.9c-0.6,0.9-1.1,1.8-1.7,2.8c1.3,2.3,3,4.4,4.9,6.2l0.5-0.9l2.9-5.6l3.7-7l0,0
	l6.3-12.2v-0.1v0.1L198.7,166.4z"/>
<path class="st16" d="M198.7,166.4l0.1-0.2L198.7,166.4z"/>
</svg>
